<?xml version="1.0" encoding="utf-8"?>
<!-- Generator: Adobe Illustrator 19.2.1, SVG Export Plug-In . SVG Version: 6.00 Build 0)  -->
<svg version="1.1" id="Ebene_1" xmlns="http://www.w3.org/2000/svg" xmlns:xlink="http://www.w3.org/1999/xlink" x="0px" y="0px"
	 viewBox="-412 290.3 16 16" style="enable-background:new -412 290.3 16 16;" xml:space="preserve">
<style type="text/css">
	.st0{fill:#FFFFFF;}
	.st1{fill:#E64E4F;}
</style>
<g>
	<path class="st0" d="M-411.5,306.3c0,0,3.3-15.5,7.3-15.5c4,0,7.8,15.5,7.8,15.5"/>
	<path d="M-396.9,306.2c-1.4-5.8-4.7-14.9-7.3-14.9c-2.6,0-5.6,9.1-6.9,14.8l-0.9-0.2c0.3-1.6,3.5-15.6,7.8-15.6
		c4.2,0,7.8,14,8.2,15.6L-396.9,306.2z"/>
</g>
<g>
	<path class="st0" d="M-407.8,306.2L-407.8,306.2L-407.8,306.2z"/>
</g>
<path class="st1" d="M-399.4,302.8c-1-0.9-1.7-2.2-3-2.9c-1.1-0.7-2.4-0.7-3.6-0.1c-1,0.5-1.8,1.4-2.7,2.2c-0.8,1-1.9,2.3-3.3,2.3v2
	c1.5,0,2.8-0.9,3.8-1.9c1.1-1,2.2-2.8,3.8-3c1.7-0.2,2.7,2,3.8,3c1.3,1.1,2.9,1.9,4.6,1.9v-2C-397.1,304.3-398.4,303.7-399.4,302.8
	C-399.7,302.5-398.4,303.7-399.4,302.8z"/>
</svg>
